<mxfile host="app.diagrams.net" modified="2023-12-30T06:26:22.525Z" agent="Mozilla/5.0 (Windows NT 10.0; Win64; x64) AppleWebKit/537.36 (KHTML, like Gecko) Chrome/120.0.0.0 Safari/537.36" etag="TKzhY8EjpVN8-yH6L8Pk" version="22.1.16" type="github">
  <diagram name="Page-1" id="K51A_0M2h4tVZWGp0QA2">
    <mxGraphModel dx="880" dy="460" grid="1" gridSize="10" guides="1" tooltips="1" connect="1" arrows="1" fold="1" page="1" pageScale="1" pageWidth="850" pageHeight="1100" math="0" shadow="0">
      <root>
        <mxCell id="0" />
        <mxCell id="1" parent="0" />
        <mxCell id="6r1gZGYHF2YHg8ULvNG6-18" style="edgeStyle=orthogonalEdgeStyle;rounded=0;orthogonalLoop=1;jettySize=auto;html=1;exitX=0.5;exitY=1;exitDx=0;exitDy=0;entryX=0.5;entryY=0;entryDx=0;entryDy=0;" edge="1" parent="1" source="6r1gZGYHF2YHg8ULvNG6-1" target="6r1gZGYHF2YHg8ULvNG6-4">
          <mxGeometry relative="1" as="geometry" />
        </mxCell>
        <mxCell id="6r1gZGYHF2YHg8ULvNG6-1" value="" style="rounded=0;whiteSpace=wrap;html=1;" vertex="1" parent="1">
          <mxGeometry x="360" y="210" width="120" height="60" as="geometry" />
        </mxCell>
        <mxCell id="6r1gZGYHF2YHg8ULvNG6-17" style="edgeStyle=orthogonalEdgeStyle;rounded=0;orthogonalLoop=1;jettySize=auto;html=1;exitX=0.5;exitY=1;exitDx=0;exitDy=0;entryX=0.5;entryY=0;entryDx=0;entryDy=0;" edge="1" parent="1" source="6r1gZGYHF2YHg8ULvNG6-2" target="6r1gZGYHF2YHg8ULvNG6-1">
          <mxGeometry relative="1" as="geometry" />
        </mxCell>
        <mxCell id="6r1gZGYHF2YHg8ULvNG6-2" value="" style="rounded=0;whiteSpace=wrap;html=1;" vertex="1" parent="1">
          <mxGeometry x="360" y="130" width="120" height="60" as="geometry" />
        </mxCell>
        <mxCell id="6r1gZGYHF2YHg8ULvNG6-20" style="edgeStyle=orthogonalEdgeStyle;rounded=0;orthogonalLoop=1;jettySize=auto;html=1;exitX=0.5;exitY=1;exitDx=0;exitDy=0;entryX=0.5;entryY=0;entryDx=0;entryDy=0;" edge="1" parent="1" source="6r1gZGYHF2YHg8ULvNG6-3" target="6r1gZGYHF2YHg8ULvNG6-6">
          <mxGeometry relative="1" as="geometry" />
        </mxCell>
        <mxCell id="6r1gZGYHF2YHg8ULvNG6-3" value="" style="rounded=0;whiteSpace=wrap;html=1;" vertex="1" parent="1">
          <mxGeometry x="360" y="370" width="120" height="60" as="geometry" />
        </mxCell>
        <mxCell id="6r1gZGYHF2YHg8ULvNG6-19" style="edgeStyle=orthogonalEdgeStyle;rounded=0;orthogonalLoop=1;jettySize=auto;html=1;exitX=0.5;exitY=1;exitDx=0;exitDy=0;entryX=0.5;entryY=0;entryDx=0;entryDy=0;" edge="1" parent="1" source="6r1gZGYHF2YHg8ULvNG6-4" target="6r1gZGYHF2YHg8ULvNG6-3">
          <mxGeometry relative="1" as="geometry" />
        </mxCell>
        <mxCell id="6r1gZGYHF2YHg8ULvNG6-4" value="" style="rounded=0;whiteSpace=wrap;html=1;" vertex="1" parent="1">
          <mxGeometry x="360" y="290" width="120" height="60" as="geometry" />
        </mxCell>
        <mxCell id="6r1gZGYHF2YHg8ULvNG6-22" style="edgeStyle=orthogonalEdgeStyle;rounded=0;orthogonalLoop=1;jettySize=auto;html=1;exitX=0.5;exitY=1;exitDx=0;exitDy=0;entryX=0.5;entryY=0;entryDx=0;entryDy=0;" edge="1" parent="1" source="6r1gZGYHF2YHg8ULvNG6-5" target="6r1gZGYHF2YHg8ULvNG6-8">
          <mxGeometry relative="1" as="geometry" />
        </mxCell>
        <mxCell id="6r1gZGYHF2YHg8ULvNG6-5" value="" style="rounded=0;whiteSpace=wrap;html=1;" vertex="1" parent="1">
          <mxGeometry x="360" y="530" width="120" height="60" as="geometry" />
        </mxCell>
        <mxCell id="6r1gZGYHF2YHg8ULvNG6-21" style="edgeStyle=orthogonalEdgeStyle;rounded=0;orthogonalLoop=1;jettySize=auto;html=1;exitX=0.5;exitY=1;exitDx=0;exitDy=0;entryX=0.5;entryY=0;entryDx=0;entryDy=0;" edge="1" parent="1" source="6r1gZGYHF2YHg8ULvNG6-6" target="6r1gZGYHF2YHg8ULvNG6-5">
          <mxGeometry relative="1" as="geometry" />
        </mxCell>
        <mxCell id="6r1gZGYHF2YHg8ULvNG6-6" value="" style="rounded=0;whiteSpace=wrap;html=1;" vertex="1" parent="1">
          <mxGeometry x="360" y="450" width="120" height="60" as="geometry" />
        </mxCell>
        <mxCell id="6r1gZGYHF2YHg8ULvNG6-7" value="" style="rounded=0;whiteSpace=wrap;html=1;" vertex="1" parent="1">
          <mxGeometry x="360" y="690" width="120" height="60" as="geometry" />
        </mxCell>
        <mxCell id="6r1gZGYHF2YHg8ULvNG6-23" style="edgeStyle=orthogonalEdgeStyle;rounded=0;orthogonalLoop=1;jettySize=auto;html=1;exitX=0.5;exitY=1;exitDx=0;exitDy=0;entryX=0.5;entryY=0;entryDx=0;entryDy=0;" edge="1" parent="1" source="6r1gZGYHF2YHg8ULvNG6-8" target="6r1gZGYHF2YHg8ULvNG6-7">
          <mxGeometry relative="1" as="geometry" />
        </mxCell>
        <mxCell id="6r1gZGYHF2YHg8ULvNG6-8" value="" style="rounded=0;whiteSpace=wrap;html=1;" vertex="1" parent="1">
          <mxGeometry x="360" y="610" width="120" height="60" as="geometry" />
        </mxCell>
        <mxCell id="6r1gZGYHF2YHg8ULvNG6-9" value="Source program" style="text;html=1;strokeColor=none;fillColor=none;align=center;verticalAlign=middle;whiteSpace=wrap;rounded=0;" vertex="1" parent="1">
          <mxGeometry x="390" y="145" width="60" height="30" as="geometry" />
        </mxCell>
        <mxCell id="6r1gZGYHF2YHg8ULvNG6-10" value="Lexical Analysis" style="text;html=1;strokeColor=none;fillColor=none;align=center;verticalAlign=middle;whiteSpace=wrap;rounded=0;" vertex="1" parent="1">
          <mxGeometry x="390" y="225" width="60" height="30" as="geometry" />
        </mxCell>
        <mxCell id="6r1gZGYHF2YHg8ULvNG6-11" value="Syntax Analysis" style="text;html=1;strokeColor=none;fillColor=none;align=center;verticalAlign=middle;whiteSpace=wrap;rounded=0;" vertex="1" parent="1">
          <mxGeometry x="390" y="305" width="60" height="30" as="geometry" />
        </mxCell>
        <mxCell id="6r1gZGYHF2YHg8ULvNG6-12" value="Semantic Analysis" style="text;html=1;strokeColor=none;fillColor=none;align=center;verticalAlign=middle;whiteSpace=wrap;rounded=0;" vertex="1" parent="1">
          <mxGeometry x="390" y="385" width="60" height="30" as="geometry" />
        </mxCell>
        <mxCell id="6r1gZGYHF2YHg8ULvNG6-13" value="Code Optimization" style="text;html=1;strokeColor=none;fillColor=none;align=center;verticalAlign=middle;whiteSpace=wrap;rounded=0;" vertex="1" parent="1">
          <mxGeometry x="370" y="545" width="100" height="30" as="geometry" />
        </mxCell>
        <mxCell id="6r1gZGYHF2YHg8ULvNG6-14" value="Intermediate Code Generation" style="text;html=1;strokeColor=none;fillColor=none;align=center;verticalAlign=middle;whiteSpace=wrap;rounded=0;" vertex="1" parent="1">
          <mxGeometry x="370" y="465" width="100" height="30" as="geometry" />
        </mxCell>
        <mxCell id="6r1gZGYHF2YHg8ULvNG6-15" value="Code Generation" style="text;html=1;strokeColor=none;fillColor=none;align=center;verticalAlign=middle;whiteSpace=wrap;rounded=0;" vertex="1" parent="1">
          <mxGeometry x="370" y="625" width="100" height="30" as="geometry" />
        </mxCell>
        <mxCell id="6r1gZGYHF2YHg8ULvNG6-16" value="Target Code Generation" style="text;html=1;strokeColor=none;fillColor=none;align=center;verticalAlign=middle;whiteSpace=wrap;rounded=0;" vertex="1" parent="1">
          <mxGeometry x="370" y="705" width="100" height="30" as="geometry" />
        </mxCell>
        <mxCell id="6r1gZGYHF2YHg8ULvNG6-24" value="Tokens" style="text;html=1;strokeColor=none;fillColor=none;align=center;verticalAlign=middle;whiteSpace=wrap;rounded=0;" vertex="1" parent="1">
          <mxGeometry x="480" y="260" width="60" height="30" as="geometry" />
        </mxCell>
        <mxCell id="6r1gZGYHF2YHg8ULvNG6-25" value="Syntaxt Tree" style="text;html=1;strokeColor=none;fillColor=none;align=center;verticalAlign=middle;whiteSpace=wrap;rounded=0;" vertex="1" parent="1">
          <mxGeometry x="480" y="340" width="80" height="30" as="geometry" />
        </mxCell>
        <mxCell id="6r1gZGYHF2YHg8ULvNG6-26" value="Parse Tree" style="text;html=1;strokeColor=none;fillColor=none;align=center;verticalAlign=middle;whiteSpace=wrap;rounded=0;" vertex="1" parent="1">
          <mxGeometry x="480" y="420" width="80" height="30" as="geometry" />
        </mxCell>
        <mxCell id="6r1gZGYHF2YHg8ULvNG6-27" value="Intermediate Code" style="text;html=1;strokeColor=none;fillColor=none;align=center;verticalAlign=middle;whiteSpace=wrap;rounded=0;" vertex="1" parent="1">
          <mxGeometry x="480" y="500" width="80" height="30" as="geometry" />
        </mxCell>
        <mxCell id="6r1gZGYHF2YHg8ULvNG6-28" value="Optimized Code" style="text;html=1;strokeColor=none;fillColor=none;align=center;verticalAlign=middle;whiteSpace=wrap;rounded=0;" vertex="1" parent="1">
          <mxGeometry x="480" y="580" width="80" height="30" as="geometry" />
        </mxCell>
      </root>
    </mxGraphModel>
  </diagram>
</mxfile>
